<svg xmlns="http://www.w3.org/2000/svg" xmlns:xlink="http://www.w3.org/1999/xlink" width="500" zoomAndPan="magnify" viewBox="0 0 375 374.999991" height="500" preserveAspectRatio="xMidYMid meet" version="1.0"><defs><clipPath id="b3d1a56487"><path d="M 143.75 140.625 L 152.082031 140.625 L 152.082031 148.957031 L 143.75 148.957031 Z M 143.75 140.625 " clip-rule="nonzero"/></clipPath><clipPath id="5241616180"><path d="M 147.917969 140.625 C 145.617188 140.625 143.75 142.492188 143.75 144.792969 C 143.75 147.09375 145.617188 148.957031 147.917969 148.957031 C 150.21875 148.957031 152.082031 147.09375 152.082031 144.792969 C 152.082031 142.492188 150.21875 140.625 147.917969 140.625 Z M 147.917969 140.625 " clip-rule="nonzero"/></clipPath><clipPath id="677fbed066"><path d="M 9 228 L 366.914062 228 L 366.914062 354.777344 L 9 354.777344 Z M 9 228 " clip-rule="nonzero"/></clipPath></defs><g clip-path="url(#b3d1a56487)"><g clip-path="url(#5241616180)"><path fill="#252423" d="M 143.75 140.625 L 152.082031 140.625 L 152.082031 148.957031 L 143.75 148.957031 Z M 143.75 140.625 " fill-opacity="1" fill-rule="nonzero"/></g></g><g clip-path="url(#677fbed066)"><path fill="#000000" d="M 366.824219 349.820312 C 363.652344 353.597656 359.507812 354.691406 354.695312 354.691406 C 243.96875 354.617188 133.238281 354.640625 22.5 354.566406 C 11.949219 354.554688 8.515625 350.328125 10.359375 339.9375 C 15.410156 311.472656 30.871094 289.171875 53.039062 271.644531 C 89.949219 242.457031 132.804688 229.691406 179.417969 228.199219 C 212.046875 227.15625 243.867188 231.183594 274.296875 243.476562 C 319.117188 261.5625 354.347656 289.085938 366.8125 338.632812 C 366.824219 342.359375 366.824219 346.089844 366.824219 349.820312 Z M 366.824219 349.820312 " fill-opacity="1" fill-rule="nonzero"/></g><path fill="#000000" d="M 184.054688 23.449219 C 226.664062 20.242188 268.984375 60.292969 267.925781 107.390625 C 266.871094 154.203125 230.148438 191.59375 183.285156 191.519531 C 136.761719 191.445312 99.8125 153.644531 99.316406 106.667969 C 98.816406 61.238281 139.199219 20.253906 184.054688 23.449219 Z M 184.054688 23.449219 " fill-opacity="1" fill-rule="nonzero"/></svg>